<svg width="1450" height="1404" viewBox="0 0 1450 1404" fill="none" xmlns="http://www.w3.org/2000/svg">
<path d="M1093.55 781.104C1064.1 760.134 1038.93 734.645 1014.13 709.35C985.454 680.205 959.462 655.666 923.908 634.284C852.716 591.237 766.889 584.266 700.04 610.092C697.293 611.194 694.61 612.534 691.863 613.637C688.812 614.998 685.676 616.187 682.69 617.678C679.705 619.17 676.827 620.878 673.95 622.586C671.375 624.034 668.693 625.374 666.205 626.996C605.432 664.979 559.508 737.881 551.107 820.528C547.004 861.883 550.952 897.272 556.95 937.745C562.195 972.918 567.548 1008.31 566.627 1044.34C565.598 1080.27 555.616 1113.21 568.648 1147.84C590.539 1206.38 642.913 1256.89 716.129 1255.18C801.093 1253.18 843.124 1188.28 887.693 1147.3C918.483 1118.89 943.297 1106.76 983.056 1099.66C1057.12 1086.45 1123.15 1089.74 1172.57 1027.15C1217.9 969.632 1208.93 897.448 1175.31 844.768C1155.23 813.657 1122.89 801.857 1093.55 781.104ZM411.739 760.607C362.147 678.545 274.188 641.764 215.423 678.471C156.663 715.179 149.081 811.692 198.672 893.75C248.264 975.811 336.223 1012.59 394.988 975.886C453.813 938.983 461.33 842.665 411.739 760.607ZM528.876 619.419C584.286 577.627 583.431 480.895 526.827 403.414C470.268 325.916 379.56 297.051 324.192 338.83C268.783 380.622 269.637 477.354 326.241 554.835C382.713 632.377 473.379 661.262 528.876 619.419ZM1011.93 280.503C947.207 305.486 923.755 397.925 959.713 486.803C995.546 575.738 1077.1 627.611 1141.91 602.692C1206.63 577.709 1230.09 485.271 1194.13 396.393C1158.17 307.515 1076.66 255.517 1011.93 280.503ZM776.372 495.776C843.065 476.568 874.543 386.664 846.421 294.964C818.42 203.199 741.717 144.362 674.936 163.606C608.157 182.857 576.764 272.718 604.886 364.418C632.931 456.161 709.677 514.977 776.372 495.776Z" fill="#DAE3FF"/>
</svg>
